<?xml version="1.0" encoding="utf-8"?>
<!-- Generator: Adobe Illustrator 24.0.2, SVG Export Plug-In . SVG Version: 6.00 Build 0)  -->
<svg version="1.1" id="Layer_1" xmlns="http://www.w3.org/2000/svg" xmlns:xlink="http://www.w3.org/1999/xlink" x="0px" y="0px"
	 viewBox="0 0 174.82 85" style="enable-background:new 0 0 174.82 85;" xml:space="preserve">
<style type="text/css">
	.st0{fill-rule:evenodd;clip-rule:evenodd;fill:url(#XMLID_2_);}
	.st1{fill-rule:evenodd;clip-rule:evenodd;fill:url(#XMLID_3_);}
	.st2{fill-rule:evenodd;clip-rule:evenodd;fill:url(#XMLID_4_);}
	.st3{fill:url(#XMLID_5_);}
</style>
<g>
	<g id="XMLID_19_">
		<linearGradient id="XMLID_2_" gradientUnits="userSpaceOnUse" x1="71.9993" y1="25.3458" x2="90.8354" y2="40.7073">
			<stop  offset="0" style="stop-color:#00ABB0"/>
			<stop  offset="0.2354" style="stop-color:#06A3AB"/>
			<stop  offset="0.5984" style="stop-color:#168E9F"/>
			<stop  offset="1" style="stop-color:#2E6E8D"/>
		</linearGradient>
		<path id="XMLID_25_" class="st0" d="M104.09,24.48l2.98-5.88c-2.11,0.02-5.46,0.04-7.53,0.06c3.49-2.56,4.96-7.47,2.24-11.22
			C99.56,4.36,95.3,1.85,90.62,3.3c-3.91,1.9-4.02,3.8-3.61,5.49c1.15,2.21,6.35,0.19,8.85,2.21c4,3.24,0.99,8.93-4.14,7.14
			c-0.1,0.23-0.06,0.41,0.06,0.55c-13.49,0.06-28.08,0-40.56-0.07c-2.05-0.01-2.68-0.37-4.35-0.48l7,8.67
			c-0.05-2.83,0.96-4,3.92-3.9c2.31,0.08,7.37,0.04,13.24,0c0.47,0.25,0.85,0.71,1.06,1.5c0.7,2.65-1.94,3.74-3.71,5
			c-1.32,0.94-2.83,1.61-4.25,2.41c-3.5,1.97-6.89,4.08-9.72,7c-1.86,1.92-2.63,4.16-2.56,6.86c0.16,7.06,6.86,13.31,14.42,14.33
			c4.99,0.67,8.49,0.18,11.45,4.04c0.04,0.05,0.47-0.19,0.81-0.34c-1.09-11.84-0.24-23.74-0.66-35.62
			c-0.13-3.63-0.19-4.82,1.41-5.21c2.81-0.01,7.4,0,10.01,0.02c-0.9,0.37-1.72,0.88-2.45,1.38c-2.04,1.41-3.55,4.62-3.94,6.54
			c-0.05,0.08-0.08,0.17-0.1,0.26c-0.85,4.65-0.29,7.24,0.91,9.83c1.59,3.43,5.5,5.19,8.18,4.84c2.87-0.37,3.83-2.52,3.77-4.84
			c-0.11-4.35-3.79-4.24-6.25-5.58c-1.29-0.8-2.79-1.79-3.13-3.37c-0.03-0.5,0.07-0.92,0.26-1.28c0.04-0.07,0.08-0.14,0.13-0.21
			c0.01-0.01,0.01-0.02,0.01-0.03c1.99-2.76,10.09-1.02,11.99,2.88c2.59,5.33-0.45,9.6-5.6,15c-3.8,3.98-8.13,8.33-4,12.68
			c1.4,1.47,5.58,3.01,9.93,2.9c2.8-0.07,9.02-1.93,1-5.02c-6.36-2.45-4.28-7.23-1.23-11.27c2.33-3.09,5.13-6.19,6.18-10.55
			c0.74-3.07,0.18-9.93-5.56-14.02C100.97,22.99,103.78,22.88,104.09,24.48z M72.47,43.88c-0.16,4.85-0.05,8.31-3.95,10.99
			c-2.2,1.51-5.85,2.63-8.82-0.16c-2.64-2.48-3.18-7.84-1.08-10.73c2.97-4.09,7.48-6.24,11.74-8.61c1.66-0.92,2.07,0.37,2.1,1.71
			C72.5,39.01,72.47,40.94,72.47,43.88z"/>
		<linearGradient id="XMLID_3_" gradientUnits="userSpaceOnUse" x1="94.9888" y1="-2.8436" x2="113.8248" y2="12.5178">
			<stop  offset="0" style="stop-color:#00ABB0"/>
			<stop  offset="0.2354" style="stop-color:#06A3AB"/>
			<stop  offset="0.5983" style="stop-color:#168E9F"/>
			<stop  offset="1" style="stop-color:#2E6E8D"/>
		</linearGradient>
		<path id="XMLID_21_" class="st1" d="M166.52,18.33c-16.49,0.13-29.72,0.03-45.55-0.06c-5.01,0-8.59,1.92-10.59,4.68
			c-3.06,4.24-0.82,10.65,3.67,13.09c-1.11,0.87-2.18,1.79-3.16,2.8c-1.86,1.92-3.6,4.93-3.29,7.67
			c0.82,7.29,8.59,13.39,15.15,13.52c5.03,0.1,8.49,0.18,11.45,4.04c0.04,0.05,0.47-0.19,0.81-0.34
			c-1.09-11.84-0.24-23.74-0.66-35.62c-0.02-0.61-0.04-1.15-0.05-1.63l0.03,0.02c-0.03-2.1,0.59-3.28,2.12-3.71
			c0.05-0.01,0.09-0.01,0.15-0.02l-0.11,0c0.53-0.14,2.94-0.2,3.69-0.17c4.5,0.15,11.52-0.13,19.37,0c0.27,0.27,0.48,0.65,0.62,1.17
			c0.7,2.65-1.94,3.74-3.71,5c-1.32,0.94-2.83,1.61-4.25,2.41c-3.5,1.97-6.89,4.08-9.72,7c-1.86,1.92-2.63,4.16-2.56,6.86
			c0.16,7.06,7.75,14.09,14.42,14.33c5.03,0.18,8.49,0.18,11.45,4.04c0.04,0.05,0.47-0.19,0.81-0.34
			c-1.09-11.84-0.24-23.74-0.66-35.62c-0.09-2.61-0.15-3.96,0.42-4.66c1.84-0.06,4.28-0.44,4.66,1.54l2.99-6.83
			C171.32,18.04,168.86,18.31,166.52,18.33z M124.66,55.21c-1.45,0.89-5.52,2.29-8.49-0.5c-2.64-2.48-3.18-7.84-1.08-10.73
			c1.87-2.57,6.22-4.41,9.12-6.08c1.45-0.84,1.95-6.75-2.4-6.42l-1.12,0.22c-0.69,0.39-1.37,0.79-2.06,1.2c0-0.01,0-0.02-0.01-0.03
			c-0.11,0.08-0.21,0.15-0.31,0.22c-0.01,0.01-0.02,0.01-0.03,0.02c-3.25,2.03-5.08-3.81-2-6.6c2.19-1.98,5.65-2.95,10.61-3.27
			c0.68,0.11,1.42,0.27,1.66,1.17l0.38,12.66c0.05,1.93,0.01,3.86,0.01,6.8C129.01,48.62,129.02,52.53,124.66,55.21z M156.47,53.87
			c-2.13,1.15-5.74,2.96-8.71,0.17c-2.64-2.48-3.18-7.84-1.08-10.73c2.97-4.09,7.48-6.24,11.74-8.61c1.66-0.92,2.07,0.37,2.1,1.71
			c0.05,1.93,0.01,3.86,0.01,6.8C160.54,48.07,160.83,51.53,156.47,53.87z"/>
		<linearGradient id="XMLID_4_" gradientUnits="userSpaceOnUse" x1="83.7283" y1="10.9621" x2="102.5646" y2="26.3237">
			<stop  offset="0" style="stop-color:#00ABB0"/>
			<stop  offset="0.2354" style="stop-color:#06A3AB"/>
			<stop  offset="0.5984" style="stop-color:#168E9F"/>
			<stop  offset="1" style="stop-color:#2E6E8D"/>
		</linearGradient>
		<path id="XMLID_20_" class="st2" d="M147.74,61.81c-3.52,1.71-3.62,3.42-3.25,4.94c1.04,1.99,4.72,0.48,7.45,1.44
			c1.29,0.45,1.71,2.01,1.1,2.11c-1.21,1.91,0.95,1.11,1.61,1.11c1.41-0.3,4.94-2.47,3.13-5.88
			C156.25,62.8,151.96,60.51,147.74,61.81z"/>
	</g>
	<linearGradient id="XMLID_5_" gradientUnits="userSpaceOnUse" x1="41.8013" y1="54.0222" x2="62.4643" y2="70.8736">
		<stop  offset="0" style="stop-color:#00ABB0"/>
		<stop  offset="0.2354" style="stop-color:#06A3AB"/>
		<stop  offset="0.5984" style="stop-color:#168E9F"/>
		<stop  offset="1" style="stop-color:#2E6E8D"/>
	</linearGradient>
	<path id="XMLID_15_" class="st3" d="M56.94,64.87c-3.72-0.37-7.88-0.45-12.69-0.42c-6.47,0-6.09-1.88-7.37-4.81
		c-1.15-2.64-10.09-28.1-17.9-44.96c-1.08-2.34,0.79-4.97,3.36-4.7c9.5,0.98,22.89,6.51,22.89,6.51c-4.28-3.04-9-5.6-13.81-7.67
		c-2.56-1.11-5.17-2.14-7.87-2.84c-2.57-0.66-5.78-1.35-8.41-0.7c-2.3,0.57-4.07,3.6-2.94,5.85l1.73,3.82l-5.19,0.72
		c-2.26,0.31-3.54,2.75-2.52,4.78l2.36,4.73l-5,0.87C1.2,26.46,0.04,29.2,1.41,31.2c1.98,2.88,4.98,7.56,9.21,14.96
		c9.03,15.8,16.63,36.34,16.63,36.34s25.47-11.96,44.44-12.13C69.91,67.2,64.65,65.36,56.94,64.87z M30.48,78.06L6.72,30.75
		c-0.59-1.18-0.13-2.61,1.03-3.22l2.04-1.08L31.84,75.2l12.04-3.08L30.48,78.06z M36.58,70.61c-1.73,0.07-2.03-0.45-2.86-2.56
		C33,66.21,16.04,29.38,11.8,20.17c-0.52-1.13,0.01-2.46,1.16-2.93l1.79-0.72c0,0,18.36,43.71,19.94,47.47
		c1.58,3.76,2.33,3.84,4.74,3.69c2.41-0.15,16.25-0.9,18.73-0.3C50.27,68.66,38.31,70.54,36.58,70.61z"/>
</g>
</svg>
